# xmcd CD database file
#
# Track frame offsets:
#	150
#	23072
#	55136
#
# Disc length: 1188 seconds
#
# Revision: 0
# Processed by: cddbd v1.5.1PL0 Copyright (c) Steve Scherf et al.
# Submitted via: CDex 1.51
#
DISCID=1b04a203
DTITLE=Plastic Tree - 賛美歌
DYEAR=2005
DGENRE=Rock
TTITLE0=賛美歌
TTITLE1=光合成
TTITLE2=PV
EXTD=YEAR: 2005
EXTT0=
EXTT1=
EXTT2=
PLAYORDER=
